<mxfile host="app.diagrams.net" modified="2024-06-14T06:26:14.071Z" agent="Mozilla/5.0 (Windows NT 10.0; Win64; x64) AppleWebKit/537.36 (KHTML, like Gecko) Chrome/125.0.0.0 Safari/537.36" version="24.5.4" etag="l2betKf5atNVqGu1Kq_h" type="github">
  <diagram name="Puslapis-1" id="UVIPg01W4hZlzsbBDBG8">
    <mxGraphModel>
      <root>
        <mxCell id="0" />
        <mxCell id="1" parent="0" />
      </root>
    </mxGraphModel>
  </diagram>
</mxfile>
